<svg width="431.925781" height="431.452057" viewBox="0 0 431.926 431.452" fill="none" xmlns="http://www.w3.org/2000/svg" xmlns:xlink="http://www.w3.org/1999/xlink">
	<desc>
			Created with Pixso.
	</desc>
	<defs>
		<filter id="filter_13_1812_dd" x="0.000000" y="0.000000" width="431.925781" height="431.452057" filterUnits="userSpaceOnUse" color-interpolation-filters="sRGB">
			<feFlood flood-opacity="0" result="BackgroundImageFix"/>
			<feColorMatrix in="SourceAlpha" type="matrix" values="0 0 0 0 0 0 0 0 0 0 0 0 0 0 0 0 0 0 127 0" result="hardAlpha"/>
			<feMorphology radius="-17.9032" in="" result="BackgroundImageFix"/>
			<feOffset dx="0" dy="29.8387"/>
			<feGaussianBlur stdDeviation="33.3199"/>
			<feComposite in2="hardAlpha" operator="out" k2="-1" k3="1"/>
			<feColorMatrix type="matrix" values="0 0 0 0 0 0 0 0 0 0 0 0 0 0 0 0 0 0 0.3 0"/>
			<feBlend mode="normal" in2="BackgroundImageFix" result="effect_dropShadow_1"/>
			<feBlend mode="normal" in="SourceGraphic" in2="effect_dropShadow_1" result="shape"/>
		</filter>
	</defs>
	<g filter="url(#filter_13_1812_dd)">
		<rect id="Frame 2043683065" rx="29.500000" width="238.308655" height="237.943085" transform="translate(119.463867 47.969208) rotate(10.000001)" fill="#E9D4FF" fill-opacity="1.000000"/>
		<path id="?" d="M207.41 186.72Q203.92 190.33 202.8 196.64L225.23 200.59Q225.59 198.58 226.6 196.98Q227.31 195.86 228.33 194.95Q230.82 192.72 235.74 189.82Q240.25 187.12 243.16 184.84Q246.11 182.54 248.57 178.88Q251.05 175.22 251.96 170.08Q252.99 164.28 251.34 159.38Q249.8 154.79 245.92 150.99Q237.89 143.13 222.9 140.49Q209.54 138.14 199.19 141.39Q192.68 143.44 187.6 147.35Q184.62 149.64 182.14 152.57L199.16 165.94Q201.39 163.34 204.19 161.73Q205.51 160.97 206.96 160.43Q208.22 159.97 209.51 159.7Q212.88 159 216.52 159.64Q221.42 160.51 224.1 163.27Q225.59 164.78 226.07 166.57Q226.46 168.04 226.17 169.69Q226.05 170.35 225.83 170.97Q225.15 172.84 223.5 174.36Q221.34 176.36 217.1 179.13Q210.94 183.09 207.41 186.72ZM200.99 228.76Q203.9 231.13 208.14 231.88Q212.68 232.68 216.39 231.28Q217.84 230.74 219.16 229.86Q221.56 228.26 223 226.04Q224.37 223.9 224.86 221.18Q225.43 217.92 224.57 215.11Q223.92 213 222.47 211.15Q221.71 210.15 220.78 209.33Q217.66 206.52 212.78 205.66Q207.85 204.79 203.95 206.41Q202.86 206.87 201.86 207.51Q199.95 208.72 198.66 210.41Q196.83 212.8 196.23 216.14Q195.75 218.85 196.31 221.33Q196.9 223.91 198.6 226.23Q199.66 227.67 200.99 228.76Z" fill="#FFFFFF" fill-opacity="1.000000" fill-rule="evenodd"/>
		<path id="?" d="M202.8 196.64Q203.92 190.33 207.41 186.72Q210.94 183.09 217.1 179.13Q221.34 176.36 223.5 174.36Q225.7 172.34 226.17 169.69Q226.82 166.03 224.1 163.27Q221.42 160.51 216.52 159.64Q211.48 158.75 206.96 160.43Q202.44 162.11 199.16 165.94L182.14 152.57Q188.87 144.65 199.19 141.39Q209.54 138.14 222.9 140.49Q237.89 143.13 245.92 150.99Q253.95 158.85 251.96 170.08Q251.05 175.22 248.57 178.88Q246.11 182.54 243.16 184.84Q240.25 187.12 235.74 189.82Q230.82 192.72 228.33 194.95Q225.84 197.18 225.23 200.59L202.8 196.64ZM208.14 231.88Q201.95 230.79 198.6 226.23Q195.25 221.67 196.23 216.14Q197.24 210.44 201.86 207.51Q206.47 204.55 212.78 205.66Q219.09 206.78 222.47 211.15Q225.86 215.49 224.86 221.18Q223.87 226.72 219.16 229.86Q214.45 232.99 208.14 231.88Z" stroke="#202027" stroke-opacity="1.000000" stroke-width="1.000000"/>
		<rect id="Frame 2043683065" rx="29.500000" width="238.308655" height="237.943085" transform="translate(119.463867 47.969208) rotate(10.000001)" stroke="#202027" stroke-opacity="1.000000" stroke-width="1.000000"/>
	</g>
</svg>
