<svg width="919.558594" height="809.083008" viewBox="0 0 919.559 809.083" fill="none" xmlns="http://www.w3.org/2000/svg" xmlns:xlink="http://www.w3.org/1999/xlink">
	<desc>
			Created with Pixso.
	</desc>
	<defs/>
	<rect id="Frame 2043683076" rx="29.500000" width="384.000000" height="125.000000" transform="translate(118.329102 0.517090) rotate(10.000001)" fill="#FFC700" fill-opacity="1.000000"/>
	<path id="36 − 6 = ?" d="M213.16 72.31Q210.42 70.62 207.01 70.01Q201.44 69.03 197.35 71.05Q196.89 71.27 196.46 71.53Q197.64 67.17 200.49 65.01Q200.84 64.75 201.21 64.52Q201.74 64.19 202.32 63.93Q205.39 62.53 209.43 63.24Q214.35 64.11 217.17 66.94L223.3 58.78Q221.17 56.79 217.92 55.37Q214.66 53.94 210.88 53.28Q203.88 52.04 198.08 53.95Q195.75 54.72 193.72 55.97Q190.71 57.84 188.38 60.8Q184.49 65.73 183.15 73.28Q181.37 83.33 185.38 89.79Q185.57 90.09 185.77 90.39Q186.69 91.73 187.83 92.88Q192.21 97.3 199.72 98.62Q204.58 99.48 208.85 98.33Q211.79 97.52 214.08 95.84Q215.12 95.08 216.02 94.13Q216.83 93.29 217.47 92.34Q219.16 89.85 219.73 86.62Q220.27 83.58 219.59 80.85Q219.36 79.9 218.97 78.98Q218.36 77.51 217.46 76.26Q216.18 74.47 214.32 73.1Q213.75 72.68 213.16 72.31ZM329.13 92.76Q326.39 91.07 322.98 90.46Q317.41 89.48 313.32 91.5Q312.87 91.72 312.43 91.98Q313.61 87.62 316.46 85.46Q316.81 85.2 317.18 84.97Q317.72 84.63 318.29 84.37Q321.36 82.98 325.4 83.69Q330.33 84.56 333.14 87.38L339.27 79.23Q337.14 77.24 333.89 75.82Q330.63 74.39 326.85 73.73Q319.85 72.49 314.05 74.4Q311.72 75.17 309.7 76.42Q306.68 78.29 304.35 81.24Q300.46 86.18 299.12 93.73Q297.34 103.78 301.35 110.23Q301.54 110.54 301.74 110.84Q302.67 112.18 303.8 113.33Q308.18 117.75 315.69 119.07Q320.55 119.93 324.82 118.78Q327.76 117.97 330.05 116.29Q331.09 115.53 331.99 114.58Q332.8 113.74 333.45 112.78Q335.13 110.3 335.7 107.07Q336.24 104.03 335.56 101.3Q335.33 100.35 334.94 99.43Q334.33 97.96 333.43 96.71Q332.15 94.92 330.29 93.55Q329.72 93.13 329.13 92.76ZM427.77 116Q426.02 117.8 425.46 120.96L436.68 122.94Q436.86 121.93 437.36 121.13Q437.71 120.57 438.22 120.11Q439.47 119 441.93 117.55Q444.19 116.2 445.64 115.06Q447.12 113.91 448.34 112.08Q449.59 110.25 450.04 107.68Q450.56 104.78 449.73 102.33Q448.96 100.04 447.02 98.14Q443 94.21 435.51 92.89Q428.83 91.71 423.66 93.33Q420.4 94.36 417.86 96.31Q416.37 97.46 415.13 98.92L423.64 105.61Q424.76 104.31 426.16 103.5Q426.82 103.13 427.54 102.86Q428.17 102.62 428.82 102.49Q430.5 102.14 432.32 102.46Q434.77 102.89 436.11 104.27Q436.86 105.03 437.1 105.93Q437.29 106.66 437.15 107.49Q437.09 107.81 436.98 108.12Q436.64 109.06 435.81 109.82Q434.73 110.82 432.61 112.21Q429.53 114.19 427.77 116ZM176.3 70.83Q173.97 67.03 168.77 64.97L179.65 56.75L181.04 48.94L149.14 43.31L147.43 52.94L164.84 56.01L155.45 63.13L154.06 71.01L159.29 71.93Q164.08 72.77 165.08 75.19Q165.49 76.17 165.27 77.41Q165.08 78.47 164.5 79.22Q163.87 80.03 162.77 80.48Q160.67 81.34 157.45 80.78Q154.3 80.22 151.22 78.71Q148.14 77.18 145.88 74.96L139.68 83.56Q142.65 86.23 147.02 88.17Q149.91 89.45 152.92 90.24Q154.47 90.64 156.05 90.92Q162.41 92.04 167.09 90.76Q171.78 89.47 174.48 86.51Q175.92 84.93 176.79 83.08Q177.55 81.46 177.87 79.63Q178.41 76.59 177.66 73.9Q177.23 72.37 176.38 70.96Q176.34 70.9 176.3 70.83ZM393.39 96.18L362.33 90.71L360.71 99.85L391.77 105.32L393.39 96.18ZM276.01 83.67L244.95 78.2L243.32 87.4L274.39 92.87L276.01 83.67ZM204.33 89.28Q202.66 89.99 200.54 89.61Q198.04 89.17 196.65 87.69Q196.47 87.49 196.3 87.28Q195.78 86.58 195.52 85.8Q195.08 84.5 195.35 82.97Q195.64 81.37 196.54 80.28Q197.05 79.67 197.76 79.22Q198.17 78.96 198.61 78.78Q200.3 78.07 202.45 78.45Q204.73 78.85 206.08 80.19Q206.33 80.44 206.56 80.72Q207.03 81.33 207.29 82.01Q207.82 83.37 207.52 85.05Q207.2 86.85 206.16 87.99Q205.7 88.49 205.11 88.86Q204.73 89.1 204.33 89.28ZM320.3 109.72Q318.64 110.44 316.51 110.06Q314.01 109.62 312.62 108.14Q312.44 107.94 312.27 107.73Q311.75 107.03 311.49 106.25Q311.05 104.95 311.32 103.42Q311.61 101.82 312.51 100.73Q313.02 100.12 313.73 99.67Q314.14 99.41 314.58 99.23Q316.28 98.52 318.42 98.89Q320.7 99.3 322.05 100.63Q322.3 100.89 322.53 101.17Q323 101.77 323.26 102.46Q323.79 103.82 323.49 105.5Q323.17 107.3 322.13 108.44Q321.68 108.94 321.08 109.31Q320.71 109.55 320.3 109.72ZM390.57 112.14L359.5 106.66L357.88 115.8L388.95 121.28L390.57 112.14ZM424.56 137.02Q426.01 138.21 428.13 138.58Q430.4 138.98 432.25 138.28Q432.98 138.01 433.64 137.57Q434.84 136.77 435.56 135.66Q436.25 134.59 436.49 133.23Q436.78 131.6 436.35 130.19Q436.02 129.14 435.3 128.21Q434.91 127.72 434.45 127.3Q432.89 125.9 430.45 125.47Q427.99 125.04 426.04 125.85Q425.49 126.07 424.99 126.4Q424.04 127 423.39 127.84Q422.47 129.04 422.18 130.71Q421.94 132.07 422.22 133.31Q422.51 134.59 423.36 135.75Q423.89 136.47 424.56 137.02Z" fill="#FFFFFF" fill-opacity="1.000000" fill-rule="evenodd"/>
	<path id="36 − 6 = ?" d="M168.77 64.97Q174.05 67.06 176.38 70.96Q178.72 74.85 177.87 79.63Q177.18 83.54 174.48 86.51Q171.78 89.47 167.09 90.76Q162.41 92.04 156.05 90.92Q151.39 90.1 147.02 88.17Q142.65 86.23 139.68 83.56L145.88 74.96Q148.14 77.18 151.22 78.71Q154.3 80.22 157.45 80.78Q160.67 81.34 162.77 80.48Q164.88 79.61 165.27 77.41Q166.03 73.12 159.29 71.93L154.06 71.01L155.45 63.13L164.84 56.01L147.43 52.94L149.14 43.31L181.04 48.94L179.65 56.75L168.77 64.97ZM207.01 70.01Q211.16 70.75 214.32 73.1Q217.49 75.43 218.97 78.98Q220.45 82.52 219.73 86.62Q218.94 91.09 216.02 94.13Q213.12 97.16 208.85 98.33Q204.58 99.48 199.72 98.62Q190.27 96.96 185.77 90.39Q181.29 83.81 183.15 73.28Q184.49 65.73 188.38 60.8Q192.28 55.85 198.08 53.95Q203.88 52.04 210.88 53.28Q214.66 53.94 217.92 55.37Q221.17 56.79 223.3 58.78L217.17 66.94Q214.35 64.11 209.43 63.24Q204.64 62.4 201.21 64.52Q197.78 66.64 196.46 71.53Q200.82 68.92 207.01 70.01ZM200.54 89.61Q203.18 90.08 205.11 88.86Q207.06 87.64 207.52 85.05Q207.97 82.53 206.56 80.72Q205.16 78.92 202.45 78.45Q199.74 77.97 197.76 79.22Q195.8 80.46 195.35 82.97Q194.92 85.43 196.3 87.28Q197.71 89.11 200.54 89.61ZM244.95 78.2L276.01 83.67L274.39 92.87L243.32 87.4L244.95 78.2ZM322.98 90.46Q327.13 91.2 330.29 93.55Q333.46 95.88 334.94 99.43Q336.43 102.97 335.7 107.07Q334.91 111.54 331.99 114.58Q329.09 117.61 324.82 118.78Q320.55 119.93 315.69 119.07Q306.24 117.4 301.74 110.84Q297.26 104.25 299.12 93.73Q300.46 86.18 304.35 81.24Q308.25 76.3 314.05 74.4Q319.85 72.49 326.85 73.73Q330.63 74.39 333.89 75.82Q337.14 77.24 339.27 79.23L333.14 87.38Q330.33 84.56 325.4 83.69Q320.62 82.84 317.18 84.97Q313.75 87.09 312.43 91.98Q316.79 89.37 322.98 90.46ZM316.51 110.06Q319.16 110.53 321.08 109.31Q323.03 108.08 323.49 105.5Q323.94 102.98 322.53 101.17Q321.13 99.37 318.42 98.89Q315.72 98.42 313.73 99.67Q311.77 100.91 311.32 103.42Q310.89 105.88 312.27 107.73Q313.68 109.56 316.51 110.06ZM362.33 90.71L393.39 96.18L391.77 105.32L360.71 99.85L362.33 90.71ZM359.5 106.66L390.57 112.14L388.95 121.28L357.88 115.8L359.5 106.66ZM425.46 120.96Q426.02 117.8 427.77 116Q429.53 114.19 432.61 112.21Q434.73 110.82 435.81 109.82Q436.91 108.81 437.15 107.49Q437.47 105.65 436.11 104.27Q434.77 102.89 432.32 102.46Q429.8 102.02 427.54 102.86Q425.28 103.7 423.64 105.61L415.13 98.92Q418.5 94.96 423.66 93.33Q428.83 91.71 435.51 92.89Q443 94.21 447.02 98.14Q451.04 102.07 450.04 107.68Q449.59 110.25 448.34 112.08Q447.12 113.91 445.64 115.06Q444.19 116.2 441.93 117.55Q439.47 119 438.22 120.11Q436.98 121.23 436.68 122.94L425.46 120.96ZM428.13 138.58Q425.04 138.03 423.36 135.75Q421.69 133.48 422.18 130.71Q422.68 127.86 424.99 126.4Q427.3 124.92 430.45 125.47Q433.61 126.03 435.3 128.21Q436.99 130.38 436.49 133.23Q436 136 433.64 137.57Q431.29 139.14 428.13 138.58Z" stroke="#202027" stroke-opacity="1.000000" stroke-width="1.000000"/>
	<rect id="Frame 2043683076" rx="29.500000" width="384.000000" height="125.000000" transform="translate(118.329102 0.517090) rotate(10.000001)" stroke="#202027" stroke-opacity="1.000000" stroke-width="1.000000"/>
	<rect id="Frame 2043683094" rx="29.500000" width="345.000000" height="125.000000" transform="translate(509.394531 69.472168) rotate(10.000001)" fill="#FFC700" fill-opacity="1.000000"/>
	<path id="4 ÷ 2 = ?" d="M685.57 183.39L687.32 173.49L670.3 170.49L679.99 164.27Q685.12 161.01 687.22 158.1Q688.13 156.84 688.76 155.46Q689.6 153.64 689.96 151.6Q690.45 148.81 689.83 146.3Q689.55 145.19 689.04 144.13Q688.82 143.66 688.57 143.21Q686.93 140.37 683.83 138.37Q680.24 136.04 675.2 135.15Q668.84 134.03 663.73 135.67Q660.23 136.79 657.56 138.94Q656.34 139.92 655.28 141.13L663.65 147.93Q664.88 146.59 666.41 145.83Q666.97 145.55 667.58 145.36Q668.18 145.16 668.8 145.04Q670.49 144.73 672.28 145.04Q675.05 145.53 676.29 146.99Q676.67 147.44 676.9 147.95Q677.41 149.1 677.14 150.58Q677.13 150.64 677.12 150.7Q676.81 152.27 675.75 153.68Q674.65 155.14 671.85 156.99L652.61 169.51L651.22 177.33L685.57 183.39ZM780.66 178.23Q778.91 180.03 778.35 183.18L789.57 185.16Q789.75 184.15 790.25 183.35Q790.6 182.8 791.11 182.34Q792.36 181.23 794.82 179.77Q797.08 178.42 798.53 177.28Q800 176.13 801.23 174.3Q802.48 172.47 802.93 169.91Q803.45 167 802.62 164.55Q801.85 162.26 799.91 160.36Q795.89 156.43 788.4 155.11Q781.72 153.93 776.55 155.56Q773.29 156.59 770.75 158.54Q769.26 159.68 768.02 161.15L776.53 167.84Q777.64 166.53 779.05 165.73Q779.71 165.35 780.43 165.08Q781.06 164.85 781.71 164.71Q783.39 164.36 785.21 164.69Q787.66 165.12 789 166.5Q789.75 167.26 789.99 168.15Q790.18 168.88 790.03 169.71Q789.98 170.04 789.87 170.35Q789.53 171.28 788.7 172.04Q787.62 173.04 785.5 174.43Q782.42 176.41 780.66 178.23ZM568.83 154.09L575.39 155.25L577.14 145.35L570.58 144.2L571.91 136.71L560.12 134.63L558.8 142.12L549.84 140.54L572.36 117.94L559.45 115.66L534.79 139.71L533.35 147.83L556.66 151.95L555.16 160.39L567.34 162.54L568.83 154.09ZM614.12 139.57Q615.33 140.52 617.06 140.83Q618.6 141.1 619.96 140.72Q620.88 140.46 621.71 139.9Q622.5 139.37 623.06 138.66Q623.96 137.5 624.25 135.86Q624.55 134.18 624.06 132.77Q623.78 131.96 623.25 131.24Q622.67 130.46 621.91 129.91Q620.76 129.07 619.19 128.8Q617.44 128.49 615.96 128.98Q615.2 129.23 614.51 129.7Q613.82 130.16 613.32 130.77Q612.33 131.95 612.02 133.7Q611.72 135.41 612.2 136.85Q612.47 137.65 612.97 138.36Q613.47 139.06 614.12 139.57ZM746.28 158.41L715.21 152.93L713.6 162.07L744.66 167.55L746.28 158.41ZM632.06 146.45L600.99 140.98L599.36 150.18L630.43 155.66L632.06 146.45ZM743.46 174.36L712.39 168.89L710.77 178.02L741.84 183.5L743.46 174.36ZM609.4 166.64Q610.59 167.56 612.27 167.86Q613.77 168.12 615.1 167.76Q616.06 167.5 616.93 166.9Q617.75 166.34 618.31 165.6Q619.19 164.44 619.48 162.83Q619.75 161.28 619.33 159.95Q619.05 159.06 618.46 158.27Q617.88 157.49 617.13 156.94Q615.97 156.1 614.4 155.83Q612.6 155.51 611.09 156.03Q610.37 156.27 609.72 156.7Q609.06 157.14 608.57 157.71Q607.56 158.9 607.24 160.67Q606.95 162.35 607.4 163.78Q607.67 164.61 608.19 165.36Q608.71 166.11 609.4 166.64ZM777.45 199.24Q778.9 200.43 781.02 200.8Q783.29 201.2 785.14 200.51Q785.87 200.23 786.53 199.79Q787.73 198.99 788.45 197.88Q789.14 196.81 789.38 195.46Q789.67 193.83 789.23 192.42Q788.91 191.37 788.19 190.44Q787.8 189.94 787.34 189.53Q785.78 188.12 783.34 187.7Q780.88 187.26 778.93 188.07Q778.38 188.3 777.88 188.62Q776.92 189.23 776.28 190.07Q775.36 191.26 775.07 192.93Q774.83 194.29 775.11 195.53Q775.4 196.82 776.25 197.98Q776.78 198.7 777.45 199.24Z" fill="#FFFFFF" fill-opacity="1.000000" fill-rule="evenodd"/>
	<path id="4 ÷ 2 = ?" d="M575.39 155.25L568.83 154.09L567.34 162.54L555.16 160.39L556.66 151.95L533.35 147.83L534.79 139.71L559.45 115.66L572.36 117.94L549.84 140.54L558.8 142.12L560.12 134.63L571.91 136.71L570.58 144.2L577.14 145.35L575.39 155.25ZM617.06 140.83Q614.41 140.36 612.97 138.36Q611.55 136.35 612.02 133.7Q612.49 131.06 614.51 129.7Q616.54 128.33 619.19 128.8Q621.77 129.25 623.25 131.24Q624.72 133.21 624.25 135.86Q623.78 138.51 621.71 139.9Q619.64 141.28 617.06 140.83ZM600.99 140.98L632.06 146.45L630.43 155.66L599.36 150.18L600.99 140.98ZM612.27 167.86Q609.62 167.39 608.19 165.36Q606.77 163.32 607.24 160.67Q607.71 158.03 609.72 156.7Q611.75 155.36 614.4 155.83Q616.99 156.28 618.46 158.27Q619.93 160.25 619.48 162.83Q619.01 165.48 616.93 166.9Q614.85 168.32 612.27 167.86ZM687.32 173.49L685.57 183.39L651.22 177.33L652.61 169.51L671.85 156.99Q674.65 155.14 675.75 153.68Q676.85 152.21 677.14 150.58Q677.52 148.43 676.29 146.99Q675.05 145.53 672.28 145.04Q669.82 144.61 667.58 145.36Q665.34 146.09 663.65 147.93L655.28 141.13Q658.63 137.3 663.73 135.67Q668.84 134.03 675.2 135.15Q680.24 136.04 683.83 138.37Q687.42 140.68 689.04 144.13Q690.67 147.57 689.96 151.6Q689.32 155.19 687.22 158.1Q685.12 161.01 679.99 164.27L670.3 170.49L687.32 173.49ZM715.21 152.93L746.28 158.41L744.66 167.55L713.6 162.07L715.21 152.93ZM712.39 168.89L743.46 174.36L741.84 183.5L710.77 178.02L712.39 168.89ZM778.35 183.18Q778.91 180.03 780.66 178.23Q782.42 176.41 785.5 174.43Q787.62 173.04 788.7 172.04Q789.8 171.03 790.03 169.71Q790.36 167.88 789 166.5Q787.66 165.12 785.21 164.69Q782.69 164.24 780.43 165.08Q778.17 165.92 776.53 167.84L768.02 161.15Q771.39 157.19 776.55 155.56Q781.72 153.93 788.4 155.11Q795.89 156.43 799.91 160.36Q803.93 164.29 802.93 169.91Q802.48 172.47 801.23 174.3Q800 176.13 798.53 177.28Q797.08 178.42 794.82 179.77Q792.36 181.23 791.11 182.34Q789.87 183.45 789.57 185.16L778.35 183.18ZM781.02 200.8Q777.93 200.26 776.25 197.98Q774.58 195.7 775.07 192.93Q775.57 190.09 777.88 188.62Q780.19 187.14 783.34 187.7Q786.5 188.25 788.19 190.44Q789.88 192.61 789.38 195.46Q788.89 198.22 786.53 199.79Q784.17 201.36 781.02 200.8Z" stroke="#202027" stroke-opacity="1.000000" stroke-width="1.000000"/>
	<rect id="Frame 2043683094" rx="29.500000" width="345.000000" height="125.000000" transform="translate(509.394531 69.472168) rotate(10.000001)" stroke="#202027" stroke-opacity="1.000000" stroke-width="1.000000"/>
	<rect id="Frame 2043683071" rx="29.500000" width="421.000000" height="125.000000" transform="translate(94.366211 136.420410) rotate(10.000001)" fill="#FFC700" fill-opacity="1.000000"/>
	<path id="100 ÷ 4 = ?" d="M154.17 228.92Q157.6 231.32 162.16 232.13Q166.41 232.88 170.26 231.95Q171.48 231.65 172.66 231.19Q173.55 230.84 174.39 230.39Q178.17 228.39 180.95 224.49Q184.37 219.73 185.63 212.61Q186.89 205.5 185.31 199.86Q184.04 195.25 181.17 192.08Q180.54 191.37 179.82 190.74Q178.85 189.87 177.77 189.16Q174.5 186.99 170.29 186.25Q165.77 185.45 161.75 186.52Q160.71 186.79 159.71 187.19Q158.89 187.51 158.12 187.92Q154.26 189.92 151.42 193.88Q148 198.65 146.74 205.75Q145.48 212.88 147.05 218.52Q148.36 223.21 151.3 226.42Q151.89 227.06 152.55 227.64Q153.32 228.33 154.17 228.92ZM197.34 236.53Q200.78 238.94 205.33 239.74Q209.59 240.49 213.44 239.56Q214.65 239.26 215.83 238.8Q216.72 238.45 217.56 238.01Q221.34 236 224.13 232.11Q227.54 227.35 228.8 220.22Q230.06 213.11 228.49 207.47Q227.22 202.86 224.35 199.69Q223.71 198.98 223 198.35Q222.02 197.48 220.94 196.77Q217.67 194.6 213.46 193.86Q208.95 193.07 204.92 194.13Q203.89 194.41 202.88 194.8Q202.07 195.13 201.29 195.53Q197.43 197.53 194.59 201.5Q191.18 206.26 189.92 213.37Q188.66 220.49 190.23 226.13Q191.54 230.83 194.48 234.03Q195.06 234.67 195.72 235.25Q196.5 235.94 197.34 236.53ZM439.8 258.25Q438.06 260.05 437.5 263.21L448.71 265.19Q448.89 264.18 449.4 263.38Q449.75 262.82 450.26 262.37Q451.51 261.25 453.97 259.8Q456.22 258.45 457.68 257.31Q459.15 256.16 460.38 254.33Q461.62 252.5 462.08 249.93Q462.59 247.03 461.77 244.58Q461 242.29 459.06 240.39Q455.04 236.46 447.55 235.14Q440.87 233.96 435.69 235.59Q432.44 236.61 429.9 238.57Q428.41 239.71 427.17 241.17L435.68 247.86Q436.79 246.56 438.19 245.76Q438.85 245.38 439.58 245.11Q440.21 244.87 440.85 244.74Q442.54 244.39 444.36 244.71Q446.81 245.14 448.15 246.52Q448.89 247.28 449.13 248.18Q449.33 248.91 449.18 249.74Q449.12 250.06 449.01 250.37Q448.67 251.31 447.85 252.07Q446.77 253.07 444.65 254.46Q441.57 256.44 439.8 258.25ZM136.22 226.65L144.03 182.54L123.37 178.9L121.66 188.53L129.85 189.97L123.74 224.45L136.22 226.65ZM340.8 254.01L347.35 255.17L349.11 245.27L342.55 244.12L343.88 236.63L332.09 234.55L330.76 242.04L321.81 240.46L344.33 217.86L331.42 215.58L306.75 239.63L305.31 247.76L328.63 251.87L327.13 260.31L339.3 262.46L340.8 254.01ZM266.9 218.47Q268.12 219.43 269.84 219.73Q271.38 220 272.74 219.62Q273.66 219.36 274.49 218.81Q275.28 218.28 275.84 217.56Q276.74 216.4 277.03 214.77Q277.33 213.08 276.85 211.67Q276.57 210.86 276.03 210.15Q275.45 209.36 274.7 208.82Q273.54 207.98 271.97 207.7Q270.22 207.39 268.74 207.89Q267.98 208.14 267.29 208.6Q266.6 209.06 266.1 209.67Q265.11 210.86 264.8 212.61Q264.5 214.32 264.98 215.76Q265.25 216.55 265.75 217.27Q266.26 217.96 266.9 218.47ZM166.21 221.89Q165.14 222.13 163.97 221.93Q162.72 221.71 161.75 221.06Q160.24 220.04 159.43 217.97Q158.11 214.58 159.28 207.96Q160.46 201.35 162.86 198.63Q164.33 196.96 166.1 196.52Q167.23 196.24 168.48 196.46Q169.65 196.67 170.57 197.27Q172.12 198.28 172.94 200.41Q174.26 203.78 173.09 210.4Q171.91 217.01 169.51 219.75Q168.01 221.47 166.21 221.89ZM209.38 229.5Q208.32 229.75 207.14 229.54Q205.89 229.32 204.93 228.67Q203.41 227.66 202.61 225.58Q201.29 222.19 202.46 215.58Q203.63 208.96 206.03 206.24Q207.5 204.57 209.28 204.13Q210.4 203.86 211.65 204.08Q212.83 204.28 213.74 204.88Q215.29 205.89 216.11 208.02Q217.43 211.4 216.26 218.01Q215.09 224.63 212.68 227.36Q211.18 229.08 209.38 229.5ZM405.43 238.44L374.36 232.96L372.74 242.1L403.81 247.57L405.43 238.44ZM284.84 225.36L253.77 219.88L252.14 229.08L283.21 234.56L284.84 225.36ZM402.6 254.39L371.54 248.91L369.92 258.05L400.98 263.53L402.6 254.39ZM262.19 245.55Q263.38 246.47 265.05 246.76Q266.55 247.03 267.88 246.66Q268.84 246.4 269.71 245.81Q270.53 245.25 271.09 244.5Q271.97 243.34 272.26 241.74Q272.53 240.19 272.11 238.86Q271.83 237.97 271.24 237.18Q270.66 236.39 269.91 235.85Q268.75 235.01 267.18 234.73Q265.38 234.42 263.87 234.93Q263.16 235.18 262.51 235.61Q261.84 236.04 261.35 236.62Q260.34 237.8 260.02 239.58Q259.73 241.25 260.19 242.69Q260.45 243.52 260.97 244.27Q261.5 245.01 262.19 245.55ZM436.59 279.27Q438.05 280.46 440.17 280.83Q442.44 281.23 444.29 280.53Q445.02 280.26 445.68 279.82Q446.88 279.02 447.6 277.91Q448.28 276.84 448.53 275.48Q448.81 273.85 448.38 272.44Q448.06 271.39 447.34 270.46Q446.95 269.97 446.49 269.55Q444.93 268.15 442.49 267.72Q440.02 267.29 438.08 268.1Q437.53 268.32 437.03 268.65Q436.07 269.25 435.43 270.09Q434.51 271.29 434.22 272.96Q433.97 274.32 434.25 275.56Q434.55 276.85 435.4 278.01Q435.93 278.72 436.59 279.27Z" fill="#FFFFFF" fill-opacity="1.000000" fill-rule="evenodd"/>
	<path id="100 ÷ 4 = ?" d="M144.03 182.54L136.22 226.65L123.74 224.45L129.85 189.97L121.66 188.53L123.37 178.9L144.03 182.54ZM162.16 232.13Q156.48 231.13 152.55 227.64Q148.62 224.16 147.05 218.52Q145.48 212.88 146.74 205.75Q148 198.65 151.42 193.88Q154.83 189.12 159.71 187.19Q164.61 185.25 170.29 186.25Q175.89 187.24 179.82 190.74Q183.76 194.22 185.31 199.86Q186.89 205.5 185.63 212.61Q184.37 219.73 180.95 224.49Q177.55 229.26 172.66 231.19Q167.76 233.12 162.16 232.13ZM163.97 221.93Q167.12 222.48 169.51 219.75Q171.91 217.01 173.09 210.4Q174.26 203.78 172.94 200.41Q171.63 197.02 168.48 196.46Q165.26 195.9 162.86 198.63Q160.46 201.35 159.28 207.96Q158.11 214.58 159.43 217.97Q160.75 221.36 163.97 221.93ZM205.33 239.74Q199.66 238.74 195.72 235.25Q191.8 231.77 190.23 226.13Q188.66 220.49 189.92 213.37Q191.18 206.26 194.59 201.5Q198 196.74 202.88 194.8Q207.78 192.86 213.46 193.86Q219.06 194.85 223 198.35Q226.93 201.84 228.49 207.47Q230.06 213.11 228.8 220.22Q227.54 227.35 224.13 232.11Q220.73 236.87 215.83 238.8Q210.94 240.73 205.33 239.74ZM207.14 229.54Q210.3 230.1 212.68 227.36Q215.09 224.63 216.26 218.01Q217.43 211.4 216.11 208.02Q214.81 204.63 211.65 204.08Q208.44 203.51 206.03 206.24Q203.63 208.96 202.46 215.58Q201.29 222.19 202.61 225.58Q203.93 228.97 207.14 229.54ZM269.84 219.73Q267.19 219.27 265.75 217.27Q264.33 215.25 264.8 212.61Q265.27 209.96 267.29 208.6Q269.32 207.23 271.97 207.7Q274.56 208.16 276.03 210.15Q277.5 212.12 277.03 214.77Q276.57 217.41 274.49 218.81Q272.42 220.19 269.84 219.73ZM253.77 219.88L284.84 225.36L283.21 234.56L252.14 229.08L253.77 219.88ZM265.05 246.76Q262.4 246.3 260.97 244.27Q259.56 242.23 260.02 239.58Q260.49 236.93 262.51 235.61Q264.54 234.27 267.18 234.73Q269.77 235.19 271.24 237.18Q272.72 239.15 272.26 241.74Q271.79 244.38 269.71 245.81Q267.64 247.22 265.05 246.76ZM347.35 255.17L340.8 254.01L339.3 262.46L327.13 260.31L328.63 251.87L305.31 247.76L306.75 239.63L331.42 215.58L344.33 217.86L321.81 240.46L330.76 242.04L332.09 234.55L343.88 236.63L342.55 244.12L349.11 245.27L347.35 255.17ZM374.36 232.96L405.43 238.44L403.81 247.57L372.74 242.1L374.36 232.96ZM371.54 248.91L402.6 254.39L400.98 263.53L369.92 258.05L371.54 248.91ZM437.5 263.21Q438.06 260.05 439.8 258.25Q441.57 256.44 444.65 254.46Q446.77 253.07 447.85 252.07Q448.95 251.06 449.18 249.74Q449.51 247.91 448.15 246.52Q446.81 245.14 444.36 244.71Q441.84 244.27 439.58 245.11Q437.32 245.95 435.68 247.86L427.17 241.17Q430.53 237.21 435.69 235.59Q440.87 233.96 447.55 235.14Q455.04 236.46 459.06 240.39Q463.07 244.32 462.08 249.93Q461.62 252.5 460.38 254.33Q459.15 256.16 457.68 257.31Q456.22 258.45 453.97 259.8Q451.51 261.25 450.26 262.37Q449.02 263.48 448.71 265.19L437.5 263.21ZM440.17 280.83Q437.07 280.29 435.4 278.01Q433.72 275.73 434.22 272.96Q434.72 270.11 437.03 268.65Q439.34 267.17 442.49 267.72Q445.64 268.28 447.34 270.46Q449.03 272.64 448.53 275.48Q448.03 278.25 445.68 279.82Q443.32 281.39 440.17 280.83Z" stroke="#202027" stroke-opacity="1.000000" stroke-width="1.000000"/>
	<rect id="Frame 2043683071" rx="29.500000" width="421.000000" height="125.000000" transform="translate(94.366211 136.420410) rotate(10.000001)" stroke="#202027" stroke-opacity="1.000000" stroke-width="1.000000"/>
	<rect id="Frame 2043683075" rx="29.500000" width="327.000000" height="125.000000" transform="translate(521.869141 211.800781) rotate(10.000001)" fill="#FFEC8F" fill-opacity="1.000000"/>
	<path id="1 + 3 = ?" d="M775.1 317.37Q773.35 319.18 772.79 322.33L784.01 324.31Q784.19 323.3 784.69 322.5Q785.04 321.94 785.56 321.49Q786.8 320.37 789.26 318.92Q791.52 317.57 792.97 316.43Q794.45 315.28 795.67 313.45Q796.92 311.62 797.37 309.05Q797.89 306.15 797.06 303.7Q796.29 301.41 794.35 299.51Q790.33 295.58 782.84 294.26Q776.16 293.08 770.99 294.71Q767.73 295.73 765.19 297.69Q763.7 298.83 762.46 300.29L770.97 306.98Q772.09 305.68 773.49 304.88Q774.15 304.5 774.87 304.23Q775.5 304 776.15 303.86Q777.83 303.51 779.65 303.83Q782.1 304.26 783.44 305.65Q784.19 306.4 784.43 307.3Q784.62 308.03 784.48 308.86Q784.42 309.19 784.31 309.5Q783.97 310.43 783.14 311.19Q782.06 312.19 779.94 313.58Q776.86 315.56 775.1 317.37ZM563.98 302.07L571.79 257.96L551.12 254.32L549.42 263.95L557.6 265.4L551.5 299.87L563.98 302.07ZM680.51 299.87Q678.17 296.06 672.98 294.01L683.86 285.79L685.24 277.97L653.35 272.35L651.64 281.98L669.04 285.04L659.66 292.16L658.26 300.04L663.49 300.96Q668.29 301.81 669.29 304.23Q669.69 305.21 669.47 306.45Q669.29 307.5 668.7 308.25Q668.07 309.06 666.98 309.51Q664.87 310.38 661.66 309.81Q658.5 309.25 655.42 307.74Q652.34 306.22 650.09 303.99L643.88 312.59Q646.86 315.26 651.22 317.21Q654.11 318.48 657.13 319.27Q658.68 319.68 660.26 319.96Q666.61 321.08 671.3 319.79Q675.99 318.51 678.68 315.54Q680.12 313.96 680.99 312.11Q681.75 310.49 682.08 308.67Q682.62 305.62 681.86 302.94Q681.43 301.41 680.58 299.99Q680.54 299.93 680.51 299.87ZM613.97 292.88L624.62 294.76L626.24 285.56L615.6 283.68L617.44 273.29L607.73 271.58L605.89 281.97L595.18 280.08L593.55 289.28L604.26 291.17L602.42 301.57L612.12 303.28L613.97 292.88ZM740.72 297.56L709.66 292.08L708.04 301.22L739.1 306.7L740.72 297.56ZM737.9 313.51L706.83 308.03L705.21 317.17L736.28 322.65L737.9 313.51ZM771.89 338.39Q773.34 339.58 775.46 339.95Q777.73 340.35 779.58 339.65Q780.31 339.38 780.97 338.94Q782.17 338.14 782.89 337.03Q783.58 335.96 783.82 334.6Q784.11 332.97 783.68 331.57Q783.35 330.51 782.63 329.59Q782.24 329.09 781.78 328.68Q780.22 327.27 777.78 326.84Q775.32 326.41 773.37 327.22Q772.82 327.44 772.32 327.77Q771.37 328.37 770.72 329.22Q769.8 330.41 769.51 332.08Q769.27 333.44 769.55 334.68Q769.84 335.97 770.69 337.13Q771.22 337.84 771.89 338.39Z" fill="#FFFFFF" fill-opacity="1.000000" fill-rule="evenodd"/>
	<path id="1 + 3 = ?" d="M571.79 257.96L563.98 302.07L551.5 299.87L557.6 265.4L549.42 263.95L551.12 254.32L571.79 257.96ZM624.62 294.76L613.97 292.88L612.12 303.28L602.42 301.57L604.26 291.17L593.55 289.28L595.18 280.08L605.89 281.97L607.73 271.58L617.44 273.29L615.6 283.68L626.24 285.56L624.62 294.76ZM672.98 294.01Q678.26 296.09 680.58 299.99Q682.92 303.88 682.08 308.67Q681.38 312.57 678.68 315.54Q675.99 318.51 671.3 319.79Q666.61 321.08 660.26 319.96Q655.6 319.13 651.22 317.21Q646.86 315.26 643.88 312.59L650.09 303.99Q652.34 306.22 655.42 307.74Q658.5 309.25 661.66 309.81Q664.87 310.38 666.98 309.51Q669.08 308.65 669.47 306.45Q670.23 302.15 663.49 300.96L658.26 300.04L659.66 292.16L669.04 285.04L651.64 281.98L653.35 272.35L685.24 277.97L683.86 285.79L672.98 294.01ZM709.66 292.08L740.72 297.56L739.1 306.7L708.04 301.22L709.66 292.08ZM706.83 308.03L737.9 313.51L736.28 322.65L705.21 317.17L706.83 308.03ZM772.79 322.33Q773.35 319.18 775.1 317.37Q776.86 315.56 779.94 313.58Q782.06 312.19 783.14 311.19Q784.24 310.18 784.48 308.86Q784.8 307.03 783.44 305.65Q782.1 304.26 779.65 303.83Q777.13 303.39 774.87 304.23Q772.61 305.07 770.97 306.98L762.46 300.29Q765.83 296.34 770.99 294.71Q776.16 293.08 782.84 294.26Q790.33 295.58 794.35 299.51Q798.37 303.44 797.37 309.05Q796.92 311.62 795.67 313.45Q794.45 315.28 792.97 316.43Q791.52 317.57 789.26 318.92Q786.8 320.37 785.56 321.49Q784.31 322.6 784.01 324.31L772.79 322.33ZM775.46 339.95Q772.37 339.41 770.69 337.13Q769.02 334.85 769.51 332.08Q770.01 329.23 772.32 327.77Q774.63 326.29 777.78 326.84Q780.94 327.4 782.63 329.59Q784.32 331.76 783.82 334.6Q783.33 337.37 780.97 338.94Q778.62 340.51 775.46 339.95Z" stroke="#202027" stroke-opacity="1.000000" stroke-width="1.000000"/>
	<rect id="Frame 2043683075" rx="29.500000" width="327.000000" height="125.000000" transform="translate(521.869141 211.800781) rotate(10.000001)" stroke="#202027" stroke-opacity="1.000000" stroke-width="1.000000"/>
	<rect id="Frame 2043683074" rx="29.500000" width="330.000000" height="125.000000" transform="translate(70.402344 272.323730) rotate(10.000001)" fill="#FFEC8F" fill-opacity="1.000000"/>
	<path id="9 + 1 = ?" d="M129.76 322.96Q125.37 318.46 117.74 317.11Q113.1 316.29 108.96 317.36Q108.82 317.4 108.68 317.43Q105.82 318.22 103.56 319.85Q102.45 320.64 101.5 321.64Q100.71 322.46 100.07 323.39Q98.38 325.88 97.81 329.13Q97.26 332.22 97.96 334.99Q98.19 335.91 98.56 336.78Q99.16 338.21 100.03 339.45Q101.32 341.26 103.2 342.66Q103.71 343.04 104.25 343.38Q107.03 345.13 110.52 345.75Q116.03 346.72 120.11 344.74Q120.56 344.53 120.99 344.28Q119.72 348.74 116.77 350.87Q116.49 351.07 116.2 351.25Q115.67 351.58 115.1 351.84Q112.07 353.22 108.09 352.52Q103.16 351.65 100.35 348.82L94.24 356.96Q96.35 358.91 99.61 360.35Q102.87 361.8 106.58 362.46Q113.58 363.69 119.41 361.8Q121.89 360.99 124.02 359.63Q126.89 357.8 129.12 354.98Q133.03 350.03 134.37 342.48Q136.14 332.46 132.15 326.01Q131.95 325.69 131.73 325.37Q130.84 324.07 129.76 322.96ZM326.56 378.41Q324.81 380.22 324.25 383.37L335.47 385.35Q335.65 384.34 336.15 383.54Q336.51 382.98 337.02 382.53Q338.26 381.41 340.72 379.96Q342.98 378.61 344.43 377.47Q345.91 376.32 347.14 374.49Q348.38 372.66 348.83 370.09Q349.35 367.19 348.52 364.74Q347.75 362.45 345.81 360.55Q341.8 356.62 334.3 355.3Q327.62 354.12 322.45 355.75Q319.19 356.77 316.65 358.73Q315.16 359.87 313.92 361.33L322.43 368.02Q323.55 366.72 324.95 365.92Q325.61 365.54 326.33 365.27Q326.96 365.03 327.61 364.9Q329.29 364.55 331.11 364.87Q333.56 365.31 334.9 366.68Q335.65 367.44 335.89 368.34Q336.08 369.07 335.94 369.9Q335.88 370.23 335.77 370.53Q335.43 371.47 334.6 372.23Q333.52 373.23 331.4 374.62Q328.32 376.6 326.56 378.41ZM228.51 383.05L236.32 338.94L215.66 335.3L213.95 344.93L222.14 346.37L216.03 380.85L228.51 383.05ZM177.91 356.12L188.56 358L190.19 348.8L179.54 346.92L181.38 336.54L171.67 334.82L169.83 345.21L159.12 343.32L157.49 352.52L168.2 354.41L166.36 364.81L176.07 366.52L177.91 356.12ZM118.96 336.96Q117.26 337.7 115.06 337.31Q112.8 336.91 111.44 335.59Q111.18 335.33 110.95 335.03Q110.48 334.42 110.21 333.73Q109.7 332.37 110 330.71Q110.32 328.87 111.39 327.73Q111.83 327.26 112.39 326.91Q112.8 326.65 113.25 326.46Q114.9 325.78 116.98 326.15Q119.46 326.59 120.83 328.05Q121.02 328.26 121.2 328.49Q121.74 329.21 122.01 330.02Q122.43 331.28 122.17 332.78Q121.88 334.38 120.98 335.46Q120.46 336.09 119.74 336.55Q119.36 336.79 118.96 336.96ZM292.18 358.6L261.12 353.12L259.5 362.26L290.57 367.74L292.18 358.6ZM289.36 374.55L258.29 369.07L256.67 378.21L287.74 383.69L289.36 374.55ZM323.35 399.43Q324.8 400.62 326.92 400.99Q329.19 401.39 331.05 400.69Q331.77 400.42 332.43 399.98Q333.63 399.18 334.35 398.07Q335.04 397 335.28 395.64Q335.57 394.01 335.14 392.61Q334.81 391.55 334.09 390.63Q333.71 390.13 333.24 389.72Q331.68 388.31 329.24 387.88Q326.78 387.45 324.83 388.26Q324.28 388.48 323.78 388.81Q322.83 389.41 322.18 390.26Q321.26 391.45 320.97 393.12Q320.73 394.48 321.01 395.72Q321.3 397.01 322.15 398.17Q322.68 398.88 323.35 399.43Z" fill="#FFFFFF" fill-opacity="1.000000" fill-rule="evenodd"/>
	<path id="9 + 1 = ?" d="M117.74 317.11Q127.25 318.79 131.73 325.37Q136.23 331.95 134.37 342.48Q133.03 350.03 129.12 354.98Q125.23 359.91 119.41 361.8Q113.58 363.69 106.58 362.46Q102.87 361.8 99.61 360.35Q96.35 358.91 94.24 356.96L100.35 348.82Q103.16 351.65 108.09 352.52Q112.81 353.35 116.2 351.25Q119.6 349.16 120.99 344.28Q116.63 346.82 110.52 345.75Q106.35 345.01 103.2 342.66Q100.05 340.31 98.56 336.78Q97.08 333.24 97.81 329.13Q98.6 324.67 101.5 321.64Q104.41 318.6 108.68 317.43Q112.95 316.27 117.74 317.11ZM115.06 337.31Q117.77 337.79 119.74 336.55Q121.72 335.3 122.17 332.78Q122.6 330.33 121.2 328.49Q119.81 326.65 116.98 326.15Q114.33 325.68 112.39 326.91Q110.46 328.12 110 330.71Q109.55 333.22 110.95 335.03Q112.36 336.84 115.06 337.31ZM188.56 358L177.91 356.12L176.07 366.52L166.36 364.81L168.2 354.41L157.49 352.52L159.12 343.32L169.83 345.21L171.67 334.82L181.38 336.54L179.54 346.92L190.19 348.8L188.56 358ZM236.32 338.94L228.51 383.05L216.03 380.85L222.14 346.37L213.95 344.93L215.66 335.3L236.32 338.94ZM261.12 353.12L292.18 358.6L290.57 367.74L259.5 362.26L261.12 353.12ZM258.29 369.07L289.36 374.55L287.74 383.69L256.67 378.21L258.29 369.07ZM324.25 383.37Q324.81 380.22 326.56 378.41Q328.32 376.6 331.4 374.62Q333.52 373.23 334.6 372.23Q335.7 371.22 335.94 369.9Q336.26 368.07 334.9 366.68Q333.56 365.31 331.11 364.87Q328.59 364.43 326.33 365.27Q324.07 366.11 322.43 368.02L313.92 361.33Q317.29 357.37 322.45 355.75Q327.62 354.12 334.3 355.3Q341.8 356.62 345.81 360.55Q349.83 364.48 348.83 370.09Q348.38 372.66 347.14 374.49Q345.91 376.32 344.43 377.47Q342.98 378.61 340.72 379.96Q338.26 381.41 337.02 382.53Q335.77 383.64 335.47 385.35L324.25 383.37ZM326.92 400.99Q323.83 400.45 322.15 398.17Q320.48 395.89 320.97 393.12Q321.47 390.27 323.78 388.81Q326.09 387.33 329.24 387.88Q332.4 388.44 334.09 390.63Q335.78 392.8 335.28 395.64Q334.79 398.41 332.43 399.98Q330.08 401.55 326.92 400.99Z" stroke="#202027" stroke-opacity="1.000000" stroke-width="1.000000"/>
	<rect id="Frame 2043683074" rx="29.500000" width="330.000000" height="125.000000" transform="translate(70.402344 272.323730) rotate(10.000001)" stroke="#202027" stroke-opacity="1.000000" stroke-width="1.000000"/>
	<rect id="Frame 2043683073" rx="29.500000" width="339.000000" height="125.000000" transform="translate(408.288086 331.902100) rotate(10.000001)" fill="#FFC700" fill-opacity="1.000000"/>
	<path id="3 × 2 = ?" d="M578.45 444.76L580.2 434.86L563.18 431.86L572.87 425.64Q578 422.38 580.1 419.47Q581.01 418.21 581.65 416.83Q582.48 415.01 582.84 412.97Q583.33 410.18 582.71 407.67Q582.43 406.56 581.93 405.5Q581.71 405.03 581.45 404.58Q579.81 401.74 576.71 399.74Q573.12 397.41 568.08 396.52Q561.72 395.4 556.61 397.04Q553.12 398.16 550.45 400.31Q549.22 401.29 548.17 402.5L556.53 409.3Q557.76 407.96 559.29 407.2Q559.86 406.92 560.46 406.73Q561.07 406.53 561.69 406.41Q563.37 406.1 565.17 406.41Q567.94 406.9 569.17 408.36Q569.56 408.81 569.78 409.32Q570.29 410.47 570.03 411.95Q570.01 412.01 570 412.07Q569.7 413.64 568.63 415.05Q567.53 416.51 564.73 418.36L545.49 430.88L544.1 438.7L578.45 444.76ZM673.54 439.6Q671.79 441.4 671.23 444.55L682.45 446.53Q682.63 445.52 683.13 444.72Q683.49 444.17 684 443.71Q685.24 442.6 687.7 441.14Q689.96 439.79 691.41 438.65Q692.89 437.5 694.12 435.67Q695.36 433.84 695.81 431.27Q696.33 428.37 695.51 425.92Q694.73 423.63 692.79 421.73Q688.78 417.8 681.28 416.48Q674.6 415.3 669.43 416.93Q666.17 417.96 663.63 419.91Q662.15 421.05 660.9 422.52L669.41 429.21Q670.53 427.9 671.93 427.1Q672.59 426.72 673.31 426.45Q673.94 426.22 674.59 426.08Q676.27 425.73 678.09 426.06Q680.54 426.49 681.88 427.87Q682.63 428.63 682.87 429.52Q683.06 430.25 682.92 431.08Q682.86 431.41 682.75 431.72Q682.41 432.65 681.58 433.41Q680.5 434.41 678.38 435.8Q675.3 437.78 673.54 439.6ZM466.13 402.2Q463.79 398.39 458.6 396.33L469.48 388.11L470.87 380.3L438.97 374.67L437.26 384.3L454.67 387.37L445.28 394.49L443.88 402.37L449.12 403.29Q453.91 404.14 454.91 406.55Q455.32 407.53 455.1 408.77Q454.91 409.83 454.33 410.58Q453.7 411.39 452.6 411.84Q450.5 412.71 447.28 412.14Q444.13 411.58 441.04 410.07Q437.97 408.55 435.71 406.32L429.51 414.92Q432.48 417.59 436.85 419.53Q439.74 420.81 442.75 421.6Q444.3 422.01 445.88 422.28Q452.23 423.4 456.92 422.12Q461.61 420.84 464.31 417.87Q465.75 416.29 466.62 414.44Q467.38 412.82 467.7 411Q468.24 407.95 467.48 405.27Q467.05 403.74 466.2 402.32Q466.17 402.26 466.13 402.2ZM521.43 419.95L515.04 410.82L524.17 404.45L518.89 396.83L509.76 403.21L503.38 394.09L495.81 399.45L502.18 408.56L493.07 414.95L498.33 422.57L507.46 416.18L513.84 425.3L521.43 419.95ZM639.16 419.78L608.1 414.3L606.48 423.44L637.55 428.92L639.16 419.78ZM636.34 435.73L605.27 430.26L603.65 439.39L634.72 444.87L636.34 435.73ZM670.33 460.61Q671.78 461.8 673.9 462.17Q676.17 462.57 678.03 461.88Q678.75 461.6 679.41 461.16Q680.61 460.36 681.33 459.25Q682.02 458.18 682.26 456.83Q682.55 455.2 682.12 453.79Q681.79 452.74 681.07 451.81Q680.69 451.31 680.23 450.9Q678.66 449.49 676.22 449.07Q673.76 448.63 671.81 449.44Q671.27 449.67 670.76 449.99Q669.81 450.6 669.16 451.44Q668.25 452.63 667.95 454.3Q667.71 455.66 667.99 456.9Q668.28 458.19 669.13 459.35Q669.66 460.07 670.33 460.61Z" fill="#FFFFFF" fill-opacity="1.000000" fill-rule="evenodd"/>
	<path id="3 × 2 = ?" d="M458.6 396.33Q463.88 398.42 466.2 402.32Q468.55 406.21 467.7 411Q467.01 414.9 464.31 417.87Q461.61 420.84 456.92 422.12Q452.23 423.4 445.88 422.28Q441.22 421.46 436.85 419.53Q432.48 417.59 429.51 414.92L435.71 406.32Q437.97 408.55 441.04 410.07Q444.13 411.58 447.28 412.14Q450.5 412.71 452.6 411.84Q454.71 410.97 455.1 408.77Q455.86 404.48 449.12 403.29L443.88 402.37L445.28 394.49L454.67 387.37L437.26 384.3L438.97 374.67L470.87 380.3L469.48 388.11L458.6 396.33ZM515.04 410.82L521.43 419.95L513.84 425.3L507.46 416.18L498.33 422.57L493.07 414.95L502.18 408.56L495.81 399.45L503.38 394.09L509.76 403.21L518.89 396.83L524.17 404.45L515.04 410.82ZM580.2 434.86L578.45 444.76L544.1 438.7L545.49 430.88L564.73 418.36Q567.53 416.51 568.63 415.05Q569.74 413.58 570.03 411.95Q570.41 409.8 569.17 408.36Q567.94 406.9 565.17 406.41Q562.7 405.98 560.46 406.73Q558.22 407.46 556.53 409.3L548.17 402.5Q551.51 398.67 556.61 397.04Q561.72 395.4 568.08 396.52Q573.12 397.41 576.71 399.74Q580.3 402.05 581.93 405.5Q583.55 408.94 582.84 412.97Q582.21 416.56 580.1 419.47Q578 422.38 572.87 425.64L563.18 431.86L580.2 434.86ZM608.1 414.3L639.16 419.78L637.55 428.92L606.48 423.44L608.1 414.3ZM605.27 430.26L636.34 435.73L634.72 444.87L603.65 439.39L605.27 430.26ZM671.23 444.55Q671.79 441.4 673.54 439.6Q675.3 437.78 678.38 435.8Q680.5 434.41 681.58 433.41Q682.68 432.4 682.92 431.08Q683.24 429.25 681.88 427.87Q680.54 426.49 678.09 426.06Q675.57 425.61 673.31 426.45Q671.05 427.29 669.41 429.21L660.9 422.52Q664.27 418.56 669.43 416.93Q674.6 415.3 681.28 416.48Q688.78 417.8 692.79 421.73Q696.81 425.66 695.81 431.27Q695.36 433.84 694.12 435.67Q692.89 437.5 691.41 438.65Q689.96 439.79 687.7 441.14Q685.24 442.6 684 443.71Q682.75 444.82 682.45 446.53L671.23 444.55ZM673.9 462.17Q670.81 461.63 669.13 459.35Q667.46 457.07 667.95 454.3Q668.45 451.46 670.76 449.99Q673.07 448.51 676.22 449.07Q679.38 449.62 681.07 451.81Q682.76 453.98 682.26 456.83Q681.77 459.59 679.41 461.16Q677.06 462.73 673.9 462.17Z" stroke="#202027" stroke-opacity="1.000000" stroke-width="1.000000"/>
	<rect id="Frame 2043683073" rx="29.500000" width="339.000000" height="125.000000" transform="translate(408.288086 331.902100) rotate(10.000001)" stroke="#202027" stroke-opacity="1.000000" stroke-width="1.000000"/>
	<rect id="Frame 2043683072" rx="29.500000" width="384.000000" height="125.000000" transform="translate(46.439453 408.227295) rotate(10.000001)" fill="#FFC700" fill-opacity="1.000000"/>
	<path id="36 − 6 = ?" d="M141.27 480.02Q138.53 478.33 135.12 477.73Q129.55 476.74 125.46 478.76Q125 478.98 124.57 479.24Q125.75 474.88 128.6 472.72Q128.95 472.46 129.32 472.23Q129.85 471.9 130.42 471.64Q133.5 470.24 137.54 470.95Q142.46 471.82 145.28 474.65L151.4 466.49Q149.28 464.5 146.03 463.09Q142.77 461.65 138.99 460.99Q131.99 459.75 126.19 461.67Q123.86 462.43 121.83 463.68Q118.82 465.55 116.49 468.51Q112.6 473.44 111.26 480.99Q109.48 491.04 113.49 497.5Q113.68 497.8 113.88 498.1Q114.8 499.45 115.94 500.59Q120.32 505.01 127.83 506.33Q132.69 507.19 136.96 506.04Q139.9 505.23 142.19 503.55Q143.22 502.79 144.13 501.84Q144.94 501 145.58 500.05Q147.27 497.56 147.84 494.33Q148.38 491.29 147.7 488.56Q147.46 487.61 147.08 486.69Q146.47 485.23 145.57 483.97Q144.29 482.18 142.43 480.81Q141.86 480.39 141.27 480.02ZM257.24 500.47Q254.5 498.78 251.09 498.17Q245.52 497.19 241.43 499.21Q240.97 499.43 240.54 499.69Q241.72 495.33 244.57 493.17Q244.92 492.91 245.29 492.68Q245.82 492.35 246.4 492.09Q249.47 490.69 253.51 491.4Q258.43 492.27 261.25 495.1L267.38 486.94Q265.25 484.95 262 483.53Q258.74 482.1 254.96 481.44Q247.96 480.2 242.16 482.11Q239.83 482.88 237.8 484.13Q234.79 486 232.46 488.96Q228.57 493.89 227.23 501.44Q225.45 511.49 229.46 517.94Q229.65 518.25 229.85 518.55Q230.77 519.89 231.91 521.04Q236.29 525.46 243.8 526.78Q248.66 527.64 252.93 526.49Q255.87 525.68 258.16 524Q259.2 523.24 260.1 522.29Q260.91 521.45 261.55 520.5Q263.24 518.01 263.81 514.78Q264.35 511.74 263.67 509.01Q263.44 508.06 263.05 507.14Q262.44 505.67 261.54 504.42Q260.26 502.63 258.4 501.26Q257.83 500.84 257.24 500.47ZM355.88 523.71Q354.13 525.51 353.57 528.67L364.79 530.65Q364.97 529.64 365.47 528.84Q365.82 528.28 366.33 527.82Q367.58 526.71 370.04 525.26Q372.3 523.91 373.75 522.77Q375.22 521.62 376.45 519.79Q377.7 517.96 378.15 515.39Q378.67 512.49 377.84 510.04Q377.07 507.75 375.13 505.85Q371.11 501.92 363.62 500.6Q356.94 499.42 351.77 501.04Q348.51 502.07 345.97 504.03Q344.48 505.17 343.24 506.63L351.75 513.32Q352.86 512.02 354.27 511.21Q354.93 510.84 355.65 510.57Q356.28 510.33 356.93 510.2Q358.61 509.85 360.43 510.17Q362.88 510.6 364.22 511.98Q364.97 512.74 365.21 513.64Q365.4 514.37 365.25 515.2Q365.2 515.52 365.09 515.83Q364.75 516.77 363.92 517.53Q362.84 518.53 360.72 519.92Q357.64 521.9 355.88 523.71ZM104.41 478.54Q102.08 474.74 96.88 472.68L107.76 464.46L109.15 456.65L77.25 451.02L75.54 460.65L92.95 463.72L83.56 470.84L82.17 478.72L87.4 479.64Q92.19 480.49 93.19 482.9Q93.6 483.88 93.38 485.12Q93.19 486.18 92.61 486.93Q91.98 487.74 90.88 488.19Q88.78 489.05 85.56 488.49Q82.41 487.93 79.33 486.42Q76.25 484.89 73.99 482.67L67.79 491.27Q70.76 493.94 75.13 495.88Q78.02 497.16 81.03 497.95Q82.58 498.35 84.16 498.63Q90.52 499.75 95.2 498.47Q99.89 497.19 102.59 494.22Q104.03 492.64 104.9 490.79Q105.66 489.17 105.98 487.34Q106.52 484.3 105.77 481.62Q105.34 480.08 104.49 478.67Q104.45 478.61 104.41 478.54ZM321.5 503.9L290.43 498.42L288.82 507.56L319.88 513.03L321.5 503.9ZM204.12 491.39L173.06 485.91L171.43 495.11L202.5 500.59L204.12 491.39ZM132.44 496.99Q130.77 497.7 128.65 497.32Q126.15 496.88 124.76 495.4Q124.58 495.2 124.41 494.99Q123.89 494.29 123.63 493.51Q123.19 492.21 123.46 490.68Q123.74 489.08 124.65 487.99Q125.16 487.38 125.87 486.93Q126.28 486.67 126.72 486.49Q128.41 485.78 130.56 486.16Q132.84 486.56 134.19 487.9Q134.44 488.15 134.66 488.44Q135.13 489.04 135.4 489.72Q135.92 491.08 135.63 492.76Q135.31 494.56 134.27 495.7Q133.81 496.2 133.22 496.57Q132.84 496.81 132.44 496.99ZM248.41 517.44Q246.75 518.15 244.62 517.77Q242.12 517.33 240.73 515.85Q240.55 515.65 240.38 515.44Q239.86 514.74 239.6 513.96Q239.16 512.66 239.43 511.13Q239.72 509.53 240.62 508.44Q241.13 507.83 241.84 507.38Q242.25 507.12 242.69 506.94Q244.39 506.23 246.53 506.61Q248.81 507.01 250.16 508.35Q250.41 508.6 250.64 508.88Q251.11 509.49 251.37 510.17Q251.9 511.53 251.6 513.21Q251.28 515.01 250.24 516.15Q249.78 516.65 249.19 517.02Q248.82 517.26 248.41 517.44ZM318.68 519.85L287.61 514.37L285.99 523.51L317.06 528.99L318.68 519.85ZM352.67 544.73Q354.12 545.92 356.24 546.29Q358.51 546.69 360.36 545.99Q361.09 545.72 361.75 545.28Q362.95 544.48 363.67 543.37Q364.36 542.3 364.6 540.94Q364.89 539.31 364.45 537.9Q364.13 536.85 363.41 535.92Q363.02 535.43 362.56 535.01Q361 533.61 358.56 533.18Q356.1 532.75 354.15 533.56Q353.6 533.78 353.1 534.11Q352.14 534.71 351.5 535.55Q350.58 536.75 350.29 538.42Q350.05 539.78 350.33 541.02Q350.62 542.31 351.47 543.47Q352 544.18 352.67 544.73Z" fill="#FFFFFF" fill-opacity="1.000000" fill-rule="evenodd"/>
	<path id="36 − 6 = ?" d="M96.88 472.68Q102.16 474.77 104.49 478.67Q106.83 482.56 105.98 487.34Q105.29 491.25 102.59 494.22Q99.89 497.19 95.2 498.47Q90.52 499.75 84.16 498.63Q79.5 497.81 75.13 495.88Q70.76 493.94 67.79 491.27L73.99 482.67Q76.25 484.89 79.33 486.42Q82.41 487.93 85.56 488.49Q88.78 489.05 90.88 488.19Q92.99 487.32 93.38 485.12Q94.14 480.83 87.4 479.64L82.17 478.72L83.56 470.84L92.95 463.72L75.54 460.65L77.25 451.02L109.15 456.65L107.76 464.46L96.88 472.68ZM135.12 477.73Q139.27 478.46 142.43 480.81Q145.6 483.14 147.08 486.69Q148.56 490.24 147.84 494.33Q147.05 498.81 144.13 501.84Q141.23 504.87 136.96 506.04Q132.69 507.19 127.83 506.33Q118.38 504.67 113.88 498.1Q109.4 491.52 111.26 480.99Q112.6 473.44 116.49 468.51Q120.39 463.56 126.19 461.67Q131.99 459.75 138.99 460.99Q142.77 461.65 146.03 463.09Q149.28 464.5 151.4 466.49L145.28 474.65Q142.46 471.82 137.54 470.95Q132.75 470.11 129.32 472.23Q125.89 474.35 124.57 479.24Q128.93 476.64 135.12 477.73ZM128.65 497.32Q131.29 497.79 133.22 496.57Q135.17 495.35 135.63 492.76Q136.07 490.24 134.66 488.44Q133.27 486.63 130.56 486.16Q127.85 485.68 125.87 486.93Q123.91 488.17 123.46 490.68Q123.02 493.14 124.41 494.99Q125.82 496.82 128.65 497.32ZM173.06 485.91L204.12 491.39L202.5 500.59L171.43 495.11L173.06 485.91ZM251.09 498.17Q255.24 498.91 258.4 501.26Q261.57 503.59 263.05 507.14Q264.53 510.68 263.81 514.78Q263.02 519.25 260.1 522.29Q257.2 525.32 252.93 526.49Q248.66 527.64 243.8 526.78Q234.35 525.12 229.85 518.55Q225.37 511.96 227.23 501.44Q228.57 493.89 232.46 488.96Q236.36 484.01 242.16 482.11Q247.96 480.2 254.96 481.44Q258.74 482.1 262 483.53Q265.25 484.95 267.38 486.94L261.25 495.1Q258.43 492.27 253.51 491.4Q248.73 490.55 245.29 492.68Q241.86 494.8 240.54 499.69Q244.9 497.08 251.09 498.17ZM244.62 517.77Q247.27 518.24 249.19 517.02Q251.14 515.8 251.6 513.21Q252.05 510.69 250.64 508.88Q249.24 507.08 246.53 506.61Q243.82 506.13 241.84 507.38Q239.88 508.62 239.43 511.13Q239 513.59 240.38 515.44Q241.79 517.27 244.62 517.77ZM290.43 498.42L321.5 503.9L319.88 513.03L288.82 507.56L290.43 498.42ZM287.61 514.37L318.68 519.85L317.06 528.99L285.99 523.51L287.61 514.37ZM353.57 528.67Q354.13 525.51 355.88 523.71Q357.64 521.9 360.72 519.92Q362.84 518.53 363.92 517.53Q365.02 516.52 365.25 515.2Q365.58 513.36 364.22 511.98Q362.88 510.6 360.43 510.17Q357.91 509.73 355.65 510.57Q353.39 511.41 351.75 513.32L343.24 506.63Q346.61 502.67 351.77 501.04Q356.94 499.42 363.62 500.6Q371.11 501.92 375.13 505.85Q379.15 509.78 378.15 515.39Q377.7 517.96 376.45 519.79Q375.22 521.62 373.75 522.77Q372.3 523.91 370.04 525.26Q367.58 526.71 366.33 527.82Q365.09 528.94 364.79 530.65L353.57 528.67ZM356.24 546.29Q353.15 545.74 351.47 543.47Q349.8 541.19 350.29 538.42Q350.79 535.57 353.1 534.11Q355.41 532.63 358.56 533.18Q361.72 533.74 363.41 535.92Q365.1 538.09 364.6 540.94Q364.11 543.71 361.75 545.28Q359.39 546.85 356.24 546.29Z" stroke="#202027" stroke-opacity="1.000000" stroke-width="1.000000"/>
	<rect id="Frame 2043683072" rx="29.500000" width="384.000000" height="125.000000" transform="translate(46.439453 408.227295) rotate(10.000001)" stroke="#202027" stroke-opacity="1.000000" stroke-width="1.000000"/>
	<rect id="Frame 2043683094" rx="29.500000" width="345.000000" height="125.000000" transform="translate(437.503906 477.182617) rotate(10.000001)" fill="#FFEC8F" fill-opacity="1.000000"/>
	<path id="4 ÷ 2 = ?" d="M613.68 591.09L615.43 581.2L598.41 578.2L608.1 571.98Q613.23 568.72 615.33 565.81Q616.24 564.55 616.88 563.17Q617.71 561.35 618.07 559.31Q618.56 556.52 617.94 554.01Q617.66 552.9 617.15 551.84Q616.93 551.37 616.68 550.92Q615.04 548.08 611.94 546.08Q608.35 543.75 603.31 542.86Q596.95 541.74 591.84 543.38Q588.34 544.5 585.68 546.65Q584.45 547.63 583.4 548.84L591.76 555.64Q592.99 554.3 594.52 553.54Q595.08 553.26 595.69 553.07Q596.29 552.87 596.91 552.75Q598.6 552.44 600.39 552.75Q603.16 553.24 604.4 554.7Q604.78 555.15 605.01 555.66Q605.52 556.81 605.25 558.29Q605.24 558.35 605.23 558.41Q604.92 559.98 603.86 561.39Q602.76 562.85 599.96 564.7L580.72 577.22L579.33 585.04L613.68 591.09ZM708.77 585.94Q707.02 587.74 706.46 590.89L717.68 592.87Q717.86 591.86 718.36 591.06Q718.71 590.51 719.22 590.05Q720.47 588.94 722.93 587.48Q725.19 586.13 726.64 584.99Q728.12 583.84 729.34 582.01Q730.59 580.18 731.04 577.62Q731.56 574.71 730.73 572.26Q729.96 569.97 728.02 568.07Q724 564.14 716.51 562.82Q709.83 561.64 704.66 563.27Q701.4 564.3 698.86 566.25Q697.37 567.39 696.13 568.86L704.64 575.55Q705.76 574.24 707.16 573.44Q707.82 573.06 708.54 572.79Q709.17 572.56 709.82 572.42Q711.5 572.08 713.32 572.4Q715.77 572.83 717.11 574.21Q717.86 574.96 718.1 575.86Q718.29 576.59 718.15 577.42Q718.09 577.75 717.98 578.06Q717.64 578.99 716.81 579.75Q715.73 580.75 713.61 582.14Q710.53 584.12 708.77 585.94ZM496.94 561.8L503.5 562.96L505.25 553.06L498.69 551.91L500.02 544.42L488.23 542.34L486.91 549.83L477.95 548.25L500.47 525.65L487.56 523.37L462.9 547.42L461.46 555.55L484.77 559.65L483.27 568.1L495.45 570.25L496.94 561.8ZM542.23 547.28Q543.44 548.23 545.17 548.54Q546.71 548.81 548.07 548.43Q548.99 548.17 549.82 547.61Q550.61 547.08 551.17 546.37Q552.07 545.21 552.36 543.57Q552.66 541.89 552.17 540.48Q551.89 539.67 551.36 538.95Q550.78 538.17 550.02 537.62Q548.87 536.78 547.3 536.51Q545.55 536.2 544.07 536.69Q543.31 536.94 542.62 537.41Q541.93 537.87 541.43 538.48Q540.44 539.66 540.13 541.41Q539.83 543.12 540.31 544.56Q540.58 545.36 541.08 546.07Q541.58 546.77 542.23 547.28ZM674.39 566.12L643.32 560.64L641.71 569.78L672.77 575.26L674.39 566.12ZM560.17 554.16L529.1 548.69L527.47 557.89L558.54 563.37L560.17 554.16ZM671.57 582.07L640.5 576.59L638.88 585.73L669.95 591.21L671.57 582.07ZM537.51 574.35Q538.7 575.27 540.38 575.57Q541.88 575.83 543.21 575.47Q544.17 575.21 545.04 574.61Q545.86 574.05 546.42 573.31Q547.3 572.15 547.59 570.54Q547.86 568.99 547.44 567.66Q547.16 566.77 546.57 565.98Q545.99 565.2 545.24 564.65Q544.08 563.81 542.51 563.54Q540.71 563.22 539.2 563.74Q538.48 563.98 537.83 564.41Q537.17 564.85 536.68 565.42Q535.67 566.61 535.35 568.38Q535.06 570.06 535.52 571.49Q535.78 572.32 536.3 573.07Q536.83 573.82 537.51 574.35ZM705.56 606.95Q707.01 608.14 709.13 608.51Q711.4 608.91 713.25 608.21Q713.98 607.94 714.64 607.5Q715.84 606.7 716.56 605.59Q717.25 604.52 717.49 603.17Q717.78 601.53 717.35 600.13Q717.02 599.08 716.3 598.15Q715.91 597.65 715.45 597.24Q713.89 595.84 711.45 595.4Q708.99 594.97 707.04 595.78Q706.49 596.01 705.99 596.33Q705.04 596.94 704.39 597.78Q703.47 598.97 703.18 600.64Q702.94 602 703.22 603.24Q703.51 604.53 704.36 605.69Q704.89 606.41 705.56 606.95Z" fill="#FFFFFF" fill-opacity="1.000000" fill-rule="evenodd"/>
	<path id="4 ÷ 2 = ?" d="M503.5 562.96L496.94 561.8L495.45 570.25L483.27 568.1L484.77 559.65L461.46 555.55L462.9 547.42L487.56 523.37L500.47 525.65L477.95 548.25L486.91 549.83L488.23 542.34L500.02 544.42L498.69 551.91L505.25 553.06L503.5 562.96ZM545.17 548.54Q542.52 548.07 541.08 546.07Q539.66 544.06 540.13 541.41Q540.6 538.77 542.62 537.41Q544.65 536.04 547.3 536.51Q549.88 536.96 551.36 538.95Q552.83 540.92 552.36 543.57Q551.89 546.22 549.82 547.61Q547.75 548.99 545.17 548.54ZM529.1 548.69L560.17 554.16L558.54 563.37L527.47 557.89L529.1 548.69ZM540.38 575.57Q537.73 575.1 536.3 573.07Q534.88 571.03 535.35 568.38Q535.82 565.74 537.83 564.41Q539.86 563.07 542.51 563.54Q545.1 563.99 546.57 565.98Q548.04 567.96 547.59 570.54Q547.12 573.19 545.04 574.61Q542.96 576.03 540.38 575.57ZM615.43 581.2L613.68 591.09L579.33 585.04L580.72 577.22L599.96 564.7Q602.76 562.85 603.86 561.39Q604.96 559.92 605.25 558.29Q605.64 556.14 604.4 554.7Q603.16 553.24 600.39 552.75Q597.93 552.32 595.69 553.07Q593.45 553.8 591.76 555.64L583.4 548.84Q586.74 545.01 591.84 543.38Q596.95 541.74 603.31 542.86Q608.35 543.75 611.94 546.08Q615.53 548.39 617.15 551.84Q618.78 555.28 618.07 559.31Q617.43 562.9 615.33 565.81Q613.23 568.72 608.1 571.98L598.41 578.2L615.43 581.2ZM643.32 560.64L674.39 566.12L672.77 575.26L641.71 569.78L643.32 560.64ZM640.5 576.59L671.57 582.07L669.95 591.21L638.88 585.73L640.5 576.59ZM706.46 590.89Q707.02 587.74 708.77 585.94Q710.53 584.12 713.61 582.14Q715.73 580.75 716.81 579.75Q717.91 578.74 718.15 577.42Q718.47 575.59 717.11 574.21Q715.77 572.83 713.32 572.4Q710.8 571.95 708.54 572.79Q706.28 573.63 704.64 575.55L696.13 568.86Q699.5 564.9 704.66 563.27Q709.83 561.64 716.51 562.82Q724 564.14 728.02 568.07Q732.04 572 731.04 577.62Q730.59 580.18 729.34 582.01Q728.12 583.84 726.64 584.99Q725.19 586.13 722.93 587.48Q720.47 588.94 719.22 590.05Q717.98 591.16 717.68 592.87L706.46 590.89ZM709.13 608.51Q706.04 607.97 704.36 605.69Q702.69 603.41 703.18 600.64Q703.68 597.8 705.99 596.33Q708.3 594.85 711.45 595.4Q714.61 595.96 716.3 598.15Q717.99 600.32 717.49 603.17Q717 605.93 714.64 607.5Q712.29 609.07 709.13 608.51Z" stroke="#202027" stroke-opacity="1.000000" stroke-width="1.000000"/>
	<rect id="Frame 2043683094" rx="29.500000" width="345.000000" height="125.000000" transform="translate(437.503906 477.182617) rotate(10.000001)" stroke="#202027" stroke-opacity="1.000000" stroke-width="1.000000"/>
	<rect id="Frame 2043683093" rx="29.500000" width="423.000000" height="125.000000" transform="translate(22.475586 544.130615) rotate(10.000001)" fill="#FFEC8F" fill-opacity="1.000000"/>
	<path id="78 + 57 = ?" d="M124.11 625.4Q122.94 622.53 120.23 620.24Q122.34 619.26 123.82 617.69Q124.12 617.37 124.41 617.01Q124.77 616.55 125.08 616.05Q126.15 614.33 126.53 612.18Q126.95 609.81 126.47 607.64Q126.17 606.29 125.51 605.02Q125.49 604.98 125.47 604.94Q123.79 601.67 120.11 599.42Q116.39 597.13 111.22 596.22Q106.05 595.31 101.77 596.19Q97.55 597.04 94.83 599.53Q94.79 599.56 94.75 599.6Q93.73 600.55 93 601.69Q91.78 603.58 91.35 605.98Q90.97 608.13 91.39 610.11Q91.51 610.69 91.69 611.24Q91.83 611.67 92.01 612.08Q92.86 614.07 94.5 615.71Q91.18 616.93 89.07 619.22Q88.61 619.73 88.22 620.29Q86.85 622.26 86.39 624.86Q85.93 627.49 86.48 629.88Q86.8 631.28 87.48 632.6Q89.32 636.17 93.36 638.64Q97.42 641.1 103.09 642.1Q108.77 643.1 113.41 642.17Q118.07 641.23 121.01 638.52Q122.12 637.49 122.92 636.25Q124.25 634.21 124.71 631.62Q125.16 629.05 124.57 626.76Q124.39 626.07 124.11 625.4ZM370.4 666.4Q368.66 668.2 368.1 671.36L379.31 673.34Q379.49 672.33 380 671.53Q380.35 670.97 380.86 670.52Q382.11 669.4 384.57 667.95Q386.82 666.6 388.28 665.46Q389.75 664.31 390.98 662.48Q392.22 660.65 392.68 658.08Q393.19 655.18 392.37 652.73Q391.6 650.44 389.66 648.54Q385.64 644.61 378.15 643.29Q371.47 642.11 366.29 643.73Q363.04 644.76 360.5 646.71Q359.01 647.86 357.77 649.32L366.28 656.01Q367.39 654.71 368.79 653.9Q369.45 653.53 370.18 653.26Q370.81 653.02 371.45 652.89Q373.14 652.54 374.96 652.86Q377.41 653.29 378.75 654.67Q379.49 655.43 379.73 656.33Q379.93 657.06 379.78 657.89Q379.72 658.21 379.61 658.52Q379.27 659.46 378.45 660.22Q377.37 661.22 375.25 662.61Q372.17 664.59 370.4 666.4ZM87.81 601.07L89.19 593.26L52.63 586.81L49.68 603.5L60.33 605.38L61.53 598.58L73.13 600.63L52.19 632.22L65.81 634.62L87.81 601.07ZM236.09 639.63Q232.33 635.06 223.05 633.42L220.09 632.9L221.8 626.57L239.58 629.7L241.28 620.07L213.17 615.12L206.4 640.5L218.38 642.61Q223.16 643.45 224.85 644.93Q225.7 645.67 226.03 646.59Q226.35 647.51 226.15 648.6Q225.97 649.61 225.42 650.34Q224.78 651.21 223.62 651.69Q221.48 652.58 218.26 652.02Q217.9 651.95 217.55 651.88Q214.71 651.28 212.03 649.95Q209.22 648.53 206.99 646.47Q206.84 646.34 206.7 646.2L200.55 654.81Q203.46 657.46 207.83 659.41Q210.72 660.68 213.74 661.48Q215.28 661.88 216.86 662.16Q223.22 663.28 227.91 662Q232.54 660.73 235.24 657.73Q235.28 657.69 235.31 657.65Q236.48 656.33 237.29 654.81Q238.34 652.82 238.75 650.49Q239.43 646.68 238.31 643.5Q237.58 641.43 236.09 639.63ZM281.43 635.21L282.82 627.4L246.26 620.95L243.3 637.64L253.95 639.52L255.15 632.72L266.75 634.77L245.81 666.36L259.43 668.76L281.43 635.21ZM169.88 634.96L180.53 636.84L182.16 627.64L171.51 625.76L173.35 615.38L163.64 613.67L161.8 624.05L151.09 622.16L149.46 631.36L160.17 633.25L158.33 643.65L168.04 645.36L169.88 634.96ZM106.05 605.35Q107.61 604.63 109.67 604.99Q111.93 605.39 113.16 606.74Q113.23 606.82 113.3 606.9Q113.66 607.34 113.88 607.84Q114.41 609.04 114.14 610.59Q113.88 612.01 113.06 612.92Q112.65 613.37 112.09 613.7Q112 613.75 111.9 613.8Q110.29 614.65 108.03 614.25Q105.74 613.85 104.55 612.49Q104.49 612.42 104.43 612.35Q104.05 611.88 103.83 611.36Q103.35 610.2 103.61 608.73Q103.88 607.18 104.79 606.24Q105.17 605.84 105.66 605.55Q105.85 605.44 106.05 605.35ZM336.03 646.59L304.96 641.11L303.34 650.25L334.41 655.72L336.03 646.59ZM109.72 632.72Q107.68 633.88 104.65 633.34Q101.61 632.81 100.08 631.02Q99.47 630.3 99.18 629.48Q98.73 628.22 99 626.7Q99.27 625.15 100.16 624.11Q100.71 623.46 101.49 623.02Q101.5 623.01 101.51 623.01Q103.57 621.84 106.59 622.38Q109.62 622.91 111.14 624.71L111.14 624.72Q111.74 625.42 112.04 626.23Q112.5 627.5 112.23 629.03Q111.97 630.53 111.13 631.55Q110.56 632.24 109.72 632.72ZM333.2 662.54L302.14 657.06L300.52 666.2L331.58 671.68L333.2 662.54ZM367.19 687.42Q368.65 688.61 370.77 688.98Q373.04 689.38 374.89 688.68Q375.62 688.41 376.28 687.97Q377.48 687.17 378.2 686.06Q378.88 684.99 379.13 683.63Q379.41 682 378.98 680.59Q378.66 679.54 377.94 678.61Q377.55 678.12 377.09 677.7Q375.53 676.3 373.09 675.87Q370.62 675.44 368.68 676.25Q368.13 676.47 367.63 676.8Q366.67 677.4 366.03 678.24Q365.11 679.44 364.81 681.11Q364.57 682.47 364.85 683.71Q365.15 685 366 686.16Q366.53 686.87 367.19 687.42Z" fill="#FFFFFF" fill-opacity="1.000000" fill-rule="evenodd"/>
	<path id="78 + 57 = ?" d="M89.19 593.26L87.81 601.07L65.81 634.62L52.19 632.22L73.13 600.63L61.53 598.58L60.33 605.38L49.68 603.5L52.63 586.81L89.19 593.26ZM120.23 620.24Q122.94 622.53 124.11 625.4Q125.3 628.28 124.71 631.62Q123.97 635.78 121.01 638.52Q118.07 641.23 113.41 642.17Q108.77 643.1 103.09 642.1Q97.42 641.1 93.36 638.64Q89.32 636.17 87.48 632.6Q85.65 629.03 86.39 624.86Q86.98 621.52 89.07 619.22Q91.18 616.93 94.5 615.71Q92.52 613.72 91.69 611.24Q90.86 608.75 91.35 605.98Q92.04 602.13 94.75 599.6Q97.49 597.05 101.77 596.19Q106.05 595.31 111.22 596.22Q116.39 597.13 120.11 599.42Q123.83 601.7 125.51 605.02Q127.21 608.34 126.53 612.18Q126.04 614.95 124.41 617.01Q122.77 619.06 120.23 620.24ZM109.67 604.99Q107.34 604.58 105.66 605.55Q104 606.53 103.61 608.73Q103.23 610.87 104.43 612.35Q105.63 613.83 108.03 614.25Q110.43 614.68 112.09 613.7Q113.76 612.72 114.14 610.59Q114.53 608.38 113.3 606.9Q112.07 605.41 109.67 604.99ZM104.65 633.34Q107.68 633.88 109.72 632.72Q111.79 631.54 112.23 629.03Q112.68 626.51 111.14 624.72Q109.62 622.91 106.59 622.38Q103.56 621.84 101.49 623.02Q99.45 624.18 99 626.7Q98.55 629.21 100.08 631.02Q101.61 632.81 104.65 633.34ZM180.53 636.84L169.88 634.96L168.04 645.36L158.33 643.65L160.17 633.25L149.46 631.36L151.09 622.16L161.8 624.05L163.64 613.67L173.35 615.38L171.51 625.76L182.16 627.64L180.53 636.84ZM223.05 633.42Q232.33 635.06 236.09 639.63Q239.87 644.19 238.75 650.49Q238.02 654.59 235.31 657.65Q232.59 660.71 227.91 662Q223.22 663.28 216.86 662.16Q212.2 661.34 207.83 659.41Q203.46 657.46 200.55 654.81L206.7 646.2Q209.03 648.43 212.03 649.95Q215.05 651.45 218.26 652.02Q221.48 652.58 223.62 651.69Q225.76 650.8 226.15 648.6Q226.54 646.4 224.85 644.93Q223.16 643.45 218.38 642.61L206.4 640.5L213.17 615.12L241.28 620.07L239.58 629.7L221.8 626.57L220.09 632.9L223.05 633.42ZM282.82 627.4L281.43 635.21L259.43 668.76L245.81 666.36L266.75 634.77L255.15 632.72L253.95 639.52L243.3 637.64L246.26 620.95L282.82 627.4ZM304.96 641.11L336.03 646.59L334.41 655.72L303.34 650.25L304.96 641.11ZM302.14 657.06L333.2 662.54L331.58 671.68L300.52 666.2L302.14 657.06ZM368.1 671.36Q368.66 668.2 370.4 666.4Q372.17 664.59 375.25 662.61Q377.37 661.22 378.45 660.22Q379.55 659.21 379.78 657.89Q380.11 656.05 378.75 654.67Q377.41 653.29 374.96 652.86Q372.44 652.42 370.18 653.26Q367.92 654.1 366.28 656.01L357.77 649.32Q361.13 645.36 366.29 643.73Q371.47 642.11 378.15 643.29Q385.64 644.61 389.66 648.54Q393.67 652.46 392.68 658.08Q392.22 660.65 390.98 662.48Q389.75 664.31 388.28 665.46Q386.82 666.6 384.57 667.95Q382.11 669.4 380.86 670.52Q379.62 671.63 379.31 673.34L368.1 671.36ZM370.77 688.98Q367.67 688.44 366 686.16Q364.32 683.88 364.81 681.11Q365.32 678.26 367.63 676.8Q369.94 675.32 373.09 675.87Q376.24 676.43 377.94 678.61Q379.63 680.79 379.13 683.63Q378.63 686.4 376.28 687.97Q373.92 689.54 370.77 688.98Z" stroke="#202027" stroke-opacity="1.000000" stroke-width="1.000000"/>
	<rect id="Frame 2043683093" rx="29.500000" width="423.000000" height="125.000000" transform="translate(22.475586 544.130615) rotate(10.000001)" stroke="#202027" stroke-opacity="1.000000" stroke-width="1.000000"/>
	<rect id="Frame 2043683095" rx="29.500000" width="377.000000" height="125.000000" transform="translate(451.948242 619.858154) rotate(10.000001)" fill="#FFEC8F" fill-opacity="1.000000"/>
	<path id="10 − 4 = ?" d="M511.98 712.4Q515.41 714.8 519.97 715.61Q524.22 716.36 528.07 715.42Q529.29 715.13 530.47 714.66Q531.36 714.31 532.2 713.87Q535.98 711.87 538.76 707.97Q542.18 703.21 543.44 696.09Q544.7 688.98 543.13 683.34Q541.85 678.73 538.98 675.55Q538.35 674.85 537.63 674.22Q536.66 673.35 535.58 672.64Q532.31 670.47 528.1 669.73Q523.58 668.93 519.56 670Q518.52 670.27 517.52 670.67Q516.71 670.99 515.93 671.39Q512.07 673.4 509.23 677.36Q505.81 682.12 504.55 689.23Q503.29 696.36 504.86 701.99Q506.17 706.69 509.11 709.89Q509.7 710.54 510.36 711.12Q511.13 711.81 511.98 712.4ZM754.44 734.12Q752.69 735.92 752.13 739.07L763.35 741.05Q763.53 740.05 764.04 739.25Q764.39 738.69 764.9 738.23Q766.14 737.12 768.61 735.66Q770.86 734.32 772.32 733.18Q773.79 732.02 775.02 730.19Q776.26 728.37 776.72 725.8Q777.23 722.9 776.41 720.45Q775.64 718.15 773.69 716.25Q769.68 712.32 762.18 711Q755.51 709.82 750.33 711.45Q747.08 712.48 744.54 714.43Q743.05 715.58 741.8 717.04L750.31 723.73Q751.43 722.43 752.83 721.62Q753.49 721.24 754.21 720.97Q754.84 720.74 755.49 720.61Q757.17 720.26 759 720.58Q761.44 721.01 762.79 722.39Q763.53 723.15 763.77 724.04Q763.96 724.78 763.82 725.6Q763.76 725.93 763.65 726.24Q763.31 727.18 762.48 727.94Q761.4 728.94 759.29 730.32Q756.21 732.3 754.44 734.12ZM494.03 710.13L501.84 666.02L481.18 662.37L479.47 672.01L487.66 673.45L481.55 707.93L494.03 710.13ZM655.43 729.88L661.99 731.03L663.74 721.14L657.19 719.98L658.51 712.49L646.73 710.41L645.4 717.91L636.44 716.33L658.97 693.72L646.06 691.45L621.39 715.5L619.95 723.62L643.26 727.73L641.77 736.18L653.94 738.32L655.43 729.88ZM524.02 705.36Q522.95 705.61 521.78 705.41Q520.53 705.19 519.57 704.54Q518.05 703.52 517.24 701.45Q515.92 698.06 517.09 691.44Q518.27 684.83 520.67 682.11Q522.14 680.44 523.91 680Q525.04 679.72 526.29 679.94Q527.46 680.15 528.38 680.75Q529.93 681.76 530.75 683.89Q532.07 687.26 530.9 693.88Q529.73 700.49 527.32 703.23Q525.82 704.94 524.02 705.36ZM720.07 714.3L689 708.82L687.38 717.96L718.45 723.44L720.07 714.3ZM599.47 701.22L568.41 695.75L566.78 704.95L597.84 710.43L599.47 701.22ZM717.24 730.26L686.17 724.78L684.55 733.92L715.62 739.4L717.24 730.26ZM751.23 755.13Q752.68 756.32 754.8 756.7Q757.07 757.1 758.93 756.4Q759.65 756.13 760.32 755.68Q761.52 754.89 762.23 753.78Q762.92 752.71 763.16 751.35Q763.45 749.72 763.02 748.31Q762.7 747.26 761.97 746.33Q761.59 745.83 761.13 745.42Q759.56 744.02 757.13 743.59Q754.66 743.15 752.71 743.96Q752.17 744.19 751.66 744.51Q750.71 745.12 750.06 745.96Q749.15 747.15 748.85 748.82Q748.61 750.18 748.89 751.42Q749.18 752.71 750.04 753.87Q750.56 754.59 751.23 755.13Z" fill="#FFFFFF" fill-opacity="1.000000" fill-rule="evenodd"/>
	<path id="10 − 4 = ?" d="M501.84 666.02L494.03 710.13L481.55 707.93L487.66 673.45L479.47 672.01L481.18 662.37L501.84 666.02ZM519.97 715.61Q514.29 714.61 510.36 711.12Q506.44 707.63 504.86 701.99Q503.29 696.36 504.55 689.23Q505.81 682.12 509.23 677.36Q512.64 672.6 517.52 670.67Q522.42 668.73 528.1 669.73Q533.7 670.71 537.63 674.22Q541.57 677.7 543.13 683.34Q544.7 688.98 543.44 696.09Q542.18 703.21 538.76 707.97Q535.36 712.74 530.47 714.66Q525.57 716.59 519.97 715.61ZM521.78 705.41Q524.93 705.96 527.32 703.23Q529.73 700.49 530.9 693.88Q532.07 687.26 530.75 683.89Q529.44 680.5 526.29 679.94Q523.07 679.38 520.67 682.11Q518.27 684.83 517.09 691.44Q515.92 698.06 517.24 701.45Q518.56 704.84 521.78 705.41ZM568.41 695.75L599.47 701.22L597.84 710.43L566.78 704.95L568.41 695.75ZM661.99 731.03L655.43 729.88L653.94 738.32L641.77 736.18L643.26 727.73L619.95 723.62L621.39 715.5L646.06 691.45L658.97 693.72L636.44 716.33L645.4 717.91L646.73 710.41L658.51 712.49L657.19 719.98L663.74 721.14L661.99 731.03ZM689 708.82L720.07 714.3L718.45 723.44L687.38 717.96L689 708.82ZM686.17 724.78L717.24 730.26L715.62 739.4L684.55 733.92L686.17 724.78ZM752.13 739.07Q752.69 735.92 754.44 734.12Q756.21 732.3 759.29 730.32Q761.4 728.94 762.48 727.94Q763.58 726.93 763.82 725.6Q764.14 723.77 762.79 722.39Q761.44 721.01 759 720.58Q756.47 720.13 754.21 720.97Q751.95 721.81 750.31 723.73L741.8 717.04Q745.17 713.08 750.33 711.45Q755.51 709.82 762.18 711Q769.68 712.32 773.69 716.25Q777.71 720.18 776.72 725.8Q776.26 728.37 775.02 730.19Q773.79 732.02 772.32 733.18Q770.86 734.32 768.61 735.66Q766.14 737.12 764.9 738.23Q763.65 739.34 763.35 741.05L752.13 739.07ZM754.8 756.7Q751.71 756.15 750.04 753.87Q748.36 751.59 748.85 748.82Q749.36 745.98 751.66 744.51Q753.97 743.03 757.13 743.59Q760.28 744.14 761.97 746.33Q763.67 748.5 763.16 751.35Q762.67 754.12 760.32 755.68Q757.96 757.25 754.8 756.7Z" stroke="#202027" stroke-opacity="1.000000" stroke-width="1.000000"/>
	<rect id="Frame 2043683095" rx="29.500000" width="377.000000" height="125.000000" transform="translate(451.948242 619.858154) rotate(10.000001)" stroke="#202027" stroke-opacity="1.000000" stroke-width="1.000000"/>
</svg>
